<svg width="50" height="50" fill="white" xmlns="http://www.w3.org/2000/svg" xmlns:xlink="http://www.w3.org/1999/xlink" version="1.1" x="0px" y="0px" viewBox="0 0 100 125" enable-background="new 0 0 100 100" xml:space="preserve"><g><path d="M50,5C25.187,5,5,25.187,5,50c0,24.813,20.187,45,45,45c24.813,0,45-20.188,45-45C95,25.187,74.813,5,50,5z M50,85   c-19.299,0-35-15.701-35-35c0-7.85,2.598-15.104,6.979-20.949L70.95,78.021C65.104,82.4,57.852,85,50,85z M78.021,70.95   L29.051,21.979C34.896,17.598,42.15,15,50,15c19.299,0,35,15.701,35,35C85,57.852,82.4,65.104,78.021,70.95z"/><path d="M28.67,70.319c0,0.622,0.604,1.127,1.351,1.127h3.604c0.746,0,1.353-0.505,1.353-1.127v-5.848h19.594l-20.67-20.67h-1.295   c-1.174,0-1.233-0.487-1.233-1.089l0.257-1.182l-2.469-2.469l-1.799,6.585C25.499,46.077,25,47.883,25,50.049v0.911v6.305v7.207   h3.67V70.319z M32.883,48.922c2.116,0,3.83,1.714,3.83,3.829c-0.001,2.114-1.714,3.828-3.83,3.828   c-2.115,0-3.828-1.714-3.828-3.828C29.055,50.636,30.768,48.922,32.883,48.922z"/><path d="M72.638,45.646L68.52,30.574c-0.3-0.899-1.059-1.601-2.364-1.601c0,0-4.109-0.301-10.897-0.42H44.743   c-2.396,0.042-4.451,0.107-6.117,0.173l2.252,2.252c3.259-0.065,7.221-0.136,9.107-0.136c3.507,0,14.217,0.244,14.217,0.244   c1.175,0,1.887,0.489,2.126,1.09l2.298,10.536c0,0.602-0.06,1.089-1.234,1.089H53.7l9.658,9.658   c-0.043-0.23-0.071-0.466-0.071-0.709c0-2.115,1.715-3.829,3.83-3.829c2.116,0,3.829,1.714,3.829,3.829   c-0.002,2.114-1.713,3.828-3.829,3.828c-0.244,0-0.48-0.028-0.712-0.071l7.964,7.964H75v-7.207V50.96v-0.911   C75,47.883,74.503,46.077,72.638,45.646z"/></g></svg>