<svg width="100" height="100" fill="white" xmlns="http://www.w3.org/2000/svg" data-name="Layer 1" viewBox="0 0 100 125" x="0px" y="0px"><title>photography_10</title><path d="M31.3,19.05,72.73,78.12a2.46,2.46,0,0,1-.6,3.43,2.42,2.42,0,0,1-1.42.45,2.46,2.46,0,0,1-2-1L27.27,21.87a2.46,2.46,0,0,1,4-2.82ZM61.24,54.77,70.92,47a.79.79,0,0,0-.5-1.4H54.78Zm6.17-34.31H47.84a.8.8,0,0,0-.67.38l-4.51,7.44L54,44.51a1,1,0,0,1,.07-.15l14-22.7A.79.79,0,0,0,67.41,20.46ZM28.07,52.32a.79.79,0,0,0,.68,1.2h15a.79.79,0,0,1,.69,1.17L32.55,76a.79.79,0,0,0,1.18,1L51.16,62.91,35.34,40.35Z"/></svg>