<?xml version="1.0" encoding="UTF-8"?>
<svg width="50" height="50" fill="white" version="1.1" viewBox="0 0 1200 1200" xmlns="http://www.w3.org/2000/svg">
 <g>
  <path d="m813.48 199.14c54.973 0.023437 99.613-44.605 99.574-99.602 0.039062-55.078-44.602-99.66-99.574-99.539-55.066-0.12109-99.707 44.461-99.562 99.539-0.13281 54.996 44.508 99.625 99.562 99.602z"/>
  <path d="m685.22 382.45 0.60156 760.82c0.19141 75.938 112.12 75.254 111.85-1.7656l0.58984-442.75h21.672v442.19c-0.23828 77.387 112.99 79.332 113.06 2.3398v-764.36h19.906v272.95c-0.25391 65.605 88.621 65.605 88.414 1.1758l0.003907-298.13c0.20312-80.473-59.508-127.71-122.4-127.68l-177.47-0.003906c-42.047-0.023438-72.551 16.609-98.398 53.305l-89.629 130.61h-155.2c-62.762-0.011719-59.27 88.668-1.1641 88.453h179.22c13.945 0.21484 31.02-5.0039 41.004-19.934z"/>
  <path d="m392.96 848.65v-72.602h-72.637v72.602z"/>
  <path d="m432.78 686.99-53.293-52.691-53.305 52.691 53.305 53.316z"/>
  <path d="m383.02 586.85-53.316-52.691-52.715 52.691 52.715 53.305z"/>
  <path d="m493.12 1199.5 94.883-503.12h-71.438l-82.605 432.84h-123l-81.398-432.84h-70.883l92.555 503.12z"/>
 </g>
</svg>
